<svg width="24" height="24" viewBox="0 0 24 24" fill="none" xmlns="http://www.w3.org/2000/svg">
<g clip-path="url(#clip0_1091_11209)">
<path d="M21.3333 -0.000244141H2.66667C1.2 -0.000244141 0 1.19976 0 2.66642V21.3331C0 22.8011 1.2 23.9998 2.66667 23.9998H12V14.6664H9.33333V11.3664H12V8.63309C12 5.74776 13.616 3.72109 17.0213 3.72109L19.4253 3.72376V7.19709H17.8293C16.504 7.19709 16 8.19176 16 9.11442V11.3678H19.424L18.6667 14.6664H16V23.9998H21.3333C22.8 23.9998 24 22.8011 24 21.3331V2.66642C24 1.19976 22.8 -0.000244141 21.3333 -0.000244141Z" fill="white"/>
</g>
<defs>
<clipPath id="clip0_1091_11209">
<rect width="24" height="24" fill="white"/>
</clipPath>
</defs>
</svg>
