<svg width="24" height="24" viewBox="0 0 24 24" fill="none" xmlns="http://www.w3.org/2000/svg">
<g clip-path="url(#clip0_1091_11215)">
<path fill-rule="evenodd" clip-rule="evenodd" d="M19.2 0C20.2184 0 21.1952 0.40457 21.9153 1.12471C22.6354 1.84485 23.04 2.82157 23.04 3.84V19.2C23.04 20.2184 22.6354 21.1952 21.9153 21.9153C21.1952 22.6354 20.2184 23.04 19.2 23.04H3.84C2.82157 23.04 1.84485 22.6354 1.12471 21.9153C0.40457 21.1952 0 20.2184 0 19.2V3.84C0 2.82157 0.40457 1.84485 1.12471 1.12471C1.84485 0.40457 2.82157 0 3.84 0H19.2ZM6.4 8.96C6.06052 8.96 5.73495 9.09486 5.4949 9.3349C5.25486 9.57495 5.12 9.90052 5.12 10.24V16.64C5.12 16.9795 5.25486 17.3051 5.4949 17.5451C5.73495 17.7851 6.06052 17.92 6.4 17.92C6.73948 17.92 7.06505 17.7851 7.3051 17.5451C7.54514 17.3051 7.68 16.9795 7.68 16.64V10.24C7.68 9.90052 7.54514 9.57495 7.3051 9.3349C7.06505 9.09486 6.73948 8.96 6.4 8.96ZM10.24 7.68C9.90052 7.68 9.57495 7.81486 9.3349 8.0549C9.09486 8.29495 8.96 8.62052 8.96 8.96V16.64C8.96 16.9795 9.09486 17.3051 9.3349 17.5451C9.57495 17.7851 9.90052 17.92 10.24 17.92C10.5795 17.92 10.9051 17.7851 11.1451 17.5451C11.3851 17.3051 11.52 16.9795 11.52 16.64V11.9552C11.9104 11.5149 12.5696 10.9978 13.303 10.6842C13.7293 10.5024 14.3706 10.4282 14.816 10.569C14.9638 10.6065 15.0954 10.6909 15.191 10.8096C15.2576 10.8992 15.36 11.0989 15.36 11.52V16.64C15.36 16.9795 15.4949 17.3051 15.7349 17.5451C15.975 17.7851 16.3005 17.92 16.64 17.92C16.9795 17.92 17.3051 17.7851 17.5451 17.5451C17.7851 17.3051 17.92 16.9795 17.92 16.64V11.52C17.92 10.6624 17.7024 9.89952 17.2493 9.28768C16.8323 8.73287 16.2488 8.32605 15.584 8.12672C14.4294 7.76448 13.1507 7.96544 12.297 8.33152C12.0234 8.4486 11.7571 8.58195 11.4995 8.73088C11.4459 8.43595 11.2904 8.16921 11.0602 7.97717C10.83 7.78512 10.5398 7.67996 10.24 7.68ZM6.4 5.12C6.06052 5.12 5.73495 5.25486 5.4949 5.4949C5.25486 5.73495 5.12 6.06052 5.12 6.4C5.12 6.73948 5.25486 7.06505 5.4949 7.3051C5.73495 7.54514 6.06052 7.68 6.4 7.68C6.73948 7.68 7.06505 7.54514 7.3051 7.3051C7.54514 7.06505 7.68 6.73948 7.68 6.4C7.68 6.06052 7.54514 5.73495 7.3051 5.4949C7.06505 5.25486 6.73948 5.12 6.4 5.12Z" fill="white"/>
</g>
<defs>
<clipPath id="clip0_1091_11215">
<rect width="24" height="24" fill="white"/>
</clipPath>
</defs>
</svg>
