<svg width="226" height="56" viewBox="0 0 226 56" fill="none" xmlns="http://www.w3.org/2000/svg">
<path d="M14.7342 41.3982C12.3714 41.3982 10.221 40.854 8.28302 39.7655C6.37156 38.6505 4.84504 37.0974 3.70347 35.1063C2.5619 33.1152 1.99111 30.7657 1.99111 28.0578C1.99111 25.3499 2.5619 23.0004 3.70347 21.0092C4.84504 18.9916 6.37156 17.4385 8.28302 16.35C10.221 15.2616 12.3714 14.7173 14.7342 14.7173C17.097 14.7173 19.2341 15.2616 21.1456 16.35C23.0836 17.4385 24.6234 18.9916 25.765 21.0092C26.9065 23.0004 27.4773 25.3499 27.4773 28.0578C27.4773 30.7657 26.9065 33.1152 25.765 35.1063C24.6234 37.0974 23.0836 38.6505 21.1456 39.7655C19.2341 40.854 17.097 41.3982 14.7342 41.3982ZM14.7342 38.4116C16.5395 38.4116 18.1589 38.0266 19.5925 37.2567C21.0261 36.4603 22.1677 35.2921 23.0172 33.7524C23.8668 32.2126 24.2916 30.3144 24.2916 28.0578C24.2916 25.8012 23.8668 23.9163 23.0172 22.403C22.1677 20.8632 21.0261 19.6951 19.5925 18.8987C18.1589 18.1022 16.5395 17.704 14.7342 17.704C12.9555 17.704 11.3361 18.1022 9.87591 18.8987C8.44231 19.6951 7.30074 20.8632 6.4512 22.403C5.60166 23.9163 5.17689 25.8012 5.17689 28.0578C5.17689 30.3144 5.60166 32.2126 6.4512 33.7524C7.30074 35.2921 8.44231 36.4603 9.87591 37.2567C11.3361 38.0266 12.9555 38.4116 14.7342 38.4116ZM52.6543 37.2169L51.7782 37.4956V15.1156H54.964V41H51.7782L34.9732 18.9385L35.8493 18.6597V41H32.6636V15.1156H35.8493L52.6543 37.2169ZM64.5104 29.6108V38.0133H79.6827V41H61.3247V15.1156H79.6429V18.1022H64.5104V26.6242H76.8952V29.6108H64.5104Z" fill="#0A0A0A"/>
<rect width="139.978" height="56" transform="translate(85.4888)" fill="#0A0A0A"/>
<path d="M91.0439 41V15.235H105.898C109.349 15.235 111.964 15.8191 113.743 16.9872C115.548 18.1288 116.45 19.8411 116.45 22.1243C116.45 23.5844 116.092 24.7393 115.375 25.5888C114.658 26.4118 113.636 27.0224 112.309 27.4206C111.008 27.8188 109.468 28.0711 107.69 28.1772L107.849 27.8985C109.15 27.925 110.371 28.018 111.512 28.1772C112.681 28.3365 113.703 28.6286 114.579 29.0533C115.455 29.4781 116.145 30.0754 116.65 30.8453C117.154 31.5887 117.406 32.571 117.406 33.7922C117.406 35.3851 116.981 36.7125 116.132 37.7744C115.282 38.8098 114.101 39.5929 112.588 40.1239C111.074 40.6549 109.322 40.9469 107.331 41H91.0439ZM96.3402 36.6196H106.774C108.446 36.6196 109.734 36.3541 110.636 35.8231C111.539 35.2656 111.99 34.3895 111.99 33.1948C111.99 32.3188 111.725 31.6816 111.194 31.2834C110.663 30.8852 109.959 30.6462 109.083 30.5666C108.207 30.4604 107.265 30.4073 106.256 30.4073H96.3402V36.6196ZM96.3402 26.1463H105.698C107.371 26.1463 108.659 25.9074 109.561 25.4295C110.464 24.9251 110.915 24.0756 110.915 22.8809C110.915 21.6862 110.464 20.85 109.561 20.3721C108.659 19.8677 107.464 19.6155 105.977 19.6155H96.3402V26.1463ZM125.905 35.3851V30.9648H142.949V35.3851H125.905ZM119.493 41L131.599 15.235H137.334L149.559 41H143.785L133.192 17.7836H135.741L125.228 41H119.493ZM179.428 35.7435L177.756 36.4204V15.235H183.052V41H177.756L156.929 20.6508L158.601 19.9739V41H153.305V15.235H158.601L179.428 35.7435ZM201.943 39.2876H207.119V48.9644H201.943V39.2876ZM204.531 41.5177C201.106 41.5177 198.173 40.9867 195.73 39.9248C193.314 38.8363 191.456 37.2965 190.155 35.3054C188.881 33.3143 188.244 30.925 188.244 28.1374C188.244 25.3233 188.881 22.9207 190.155 20.9296C191.456 18.9385 193.314 17.412 195.73 16.35C198.173 15.2616 201.106 14.7173 204.531 14.7173C207.982 14.7173 210.916 15.2616 213.332 16.35C215.748 17.412 217.593 18.9385 218.867 20.9296C220.168 22.9207 220.818 25.3233 220.818 28.1374C220.818 30.925 220.168 33.3143 218.867 35.3054C217.593 37.2965 215.748 38.8363 213.332 39.9248C210.916 40.9867 207.982 41.5177 204.531 41.5177ZM204.531 36.9381C206.655 36.9381 208.513 36.6196 210.106 35.9824C211.726 35.3452 212.987 34.3762 213.889 33.0754C214.818 31.7745 215.283 30.1285 215.283 28.1374C215.283 26.1463 214.818 24.5003 213.889 23.1995C212.987 21.8986 211.726 20.9296 210.106 20.2924C208.513 19.6287 206.655 19.2969 204.531 19.2969C202.434 19.2969 200.562 19.6287 198.916 20.2924C197.27 20.9296 195.982 21.8986 195.053 23.1995C194.124 24.5003 193.659 26.1463 193.659 28.1374C193.659 30.1285 194.124 31.7745 195.053 33.0754C195.982 34.3762 197.27 35.3452 198.916 35.9824C200.562 36.6196 202.434 36.9381 204.531 36.9381Z" fill="white"/>
</svg>
