<svg width="64" height="65" viewBox="0 0 64 65" fill="none" xmlns="http://www.w3.org/2000/svg">
<path d="M57.1397 7.32405C55.8064 5.96138 53.833 5.45738 51.993 5.99072L9.08637 18.3881C7.14504 18.9267 5.76904 20.4654 5.39837 22.4174C5.01971 24.4067 6.34237 26.9347 8.07037 27.9907L21.4864 36.1827C22.8624 37.0254 24.6384 36.8147 25.777 35.6734L41.1397 20.3107C41.913 19.5081 43.193 19.5081 43.9664 20.3107C44.7397 21.0814 44.7397 22.3374 43.9664 23.1374L28.577 38.5001C27.4357 39.6414 27.2224 41.4121 28.0624 42.7907L36.2597 56.2574C37.2197 57.8547 38.873 58.7641 40.6864 58.7641C40.8997 58.7641 41.1397 58.764 41.353 58.7347C43.433 58.4707 45.0864 57.0547 45.6997 55.0547L58.4197 12.4707C58.9797 10.6574 58.473 8.68405 57.1397 7.32405Z" fill="black"/>
<path opacity="0.4" d="M25.2036 51.4945C25.9823 52.2758 25.9823 53.5425 25.2036 54.3238L21.561 57.9638C21.1716 58.3558 20.6596 58.5505 20.1476 58.5505C19.6356 58.5505 19.1236 58.3558 18.7343 57.9638C17.953 57.1825 17.953 55.9185 18.7343 55.1371L22.3743 51.4945C23.1556 50.7158 24.4223 50.7158 25.2036 51.4945ZM23.1138 41.3931C23.8924 42.1745 23.8924 43.4411 23.1138 44.2225L19.4711 47.8625C19.0818 48.2545 18.5698 48.4491 18.0578 48.4491C17.5458 48.4491 17.0338 48.2545 16.6444 47.8625C15.8631 47.0811 15.8631 45.8171 16.6444 45.0358L20.2844 41.3931C21.0658 40.6145 22.3324 40.6145 23.1138 41.3931ZM13.0839 38.2134C13.8626 38.9947 13.8626 40.2614 13.0839 41.0427L9.44123 44.6827C9.0519 45.0747 8.5399 45.2694 8.0279 45.2694C7.5159 45.2694 7.0039 45.0747 6.61456 44.6827C5.83323 43.9014 5.83323 42.6374 6.61456 41.8561L10.2546 38.2134C11.0359 37.4347 12.3026 37.4347 13.0839 38.2134Z" fill="black"/>
</svg>
