<svg width="64" height="65" viewBox="0 0 64 65" fill="none" xmlns="http://www.w3.org/2000/svg">
<path opacity="0.4" d="M36.6679 26.3232V20.937C35.6105 20.937 34.7336 20.0852 34.7336 19.0581V12.6446C34.7336 11.7904 34.0373 11.1165 33.1605 11.1165H15.4429C9.87226 11.1165 5.33325 15.5232 5.33325 20.937V27.423C5.33325 27.9266 5.53957 28.4026 5.90063 28.7533C6.26169 29.1015 6.75169 29.302 7.26749 29.302C9.22751 29.302 10.7233 30.6548 10.7233 32.4335C10.7233 34.2899 9.20172 35.768 7.29328 35.7905C6.2359 35.7905 5.33325 36.517 5.33325 37.5692V43.9851C5.33325 49.3965 9.87226 53.7806 15.4171 53.7806H33.1605C34.0373 53.7806 34.7336 53.1017 34.7336 52.2524V46.8386C34.7336 45.7889 35.6105 44.9597 36.6679 44.9597V40.102C35.6105 40.102 34.7336 39.2477 34.7336 38.2231V28.2022C34.7336 27.175 35.6105 26.3232 36.6679 26.3232Z" fill="black"/>
<path d="M53.2766 32.4348C53.2766 34.2887 54.824 35.7668 56.7067 35.7918C57.764 35.7918 58.6667 36.5183 58.6667 37.5455V43.9839C58.6667 49.3977 54.1535 53.7819 48.5829 53.7819H40.1754C39.3243 53.7819 38.6022 53.103 38.6022 52.2512V46.8399C38.6022 45.7877 37.7511 44.961 36.668 44.961V40.1033C37.7511 40.1033 38.6022 39.249 38.6022 38.2244V28.2034C38.6022 27.1738 37.7511 26.3245 36.668 26.3245V20.9358C37.7511 20.9358 38.6022 20.084 38.6022 19.0568V12.6459C38.6022 11.7916 39.3243 11.1152 40.1754 11.1152H48.5829C54.1535 11.1152 58.6667 15.4994 58.6667 20.9107V27.2239C58.6667 27.7249 58.4604 28.2034 58.0993 28.5517C57.7382 28.9024 57.2482 29.1028 56.7324 29.1028C54.824 29.1028 53.2766 30.6085 53.2766 32.4348Z" fill="black"/>
</svg>
