<svg width="64" height="65" viewBox="0 0 64 65" fill="none" xmlns="http://www.w3.org/2000/svg">
<path opacity="0.4" d="M56.6666 36.3856C54.4772 36.3856 52.6959 34.6206 52.6959 32.4513C52.6959 30.2793 54.4772 28.5142 56.6666 28.5142C57.1973 28.5142 57.7066 28.3055 58.0799 27.9356C58.4559 27.563 58.6666 27.0583 58.6666 26.5325L58.6639 19.393C58.6639 13.358 53.7066 8.44861 47.6159 8.44861H16.3839C10.2933 8.44861 5.33592 13.358 5.33592 19.393L5.33325 26.7624C5.33325 27.2882 5.54392 27.7929 5.91992 28.1654C6.29325 28.5354 6.80259 28.7441 7.33325 28.7441C9.59725 28.7441 11.3039 30.3374 11.3039 32.4513C11.3039 34.6206 9.52258 36.3856 7.33325 36.3856C6.22925 36.3856 5.33325 37.2734 5.33325 38.3674V45.5016C5.33325 51.5366 10.2879 56.4486 16.3813 56.4486H47.6186C53.7119 56.4486 58.6666 51.5366 58.6666 45.5016V38.3674C58.6666 37.2734 57.7706 36.3856 56.6666 36.3856Z" fill="black"/>
<path d="M41.148 31.3516L38.004 34.4129L38.748 38.7409C38.876 39.4902 38.5746 40.2289 37.9586 40.6716C37.348 41.1196 36.5506 41.1756 35.8786 40.8182L31.9986 38.7782L28.1106 40.8209C27.8226 40.9729 27.508 41.0529 27.196 41.0529C26.788 41.0529 26.3853 40.9249 26.0386 40.6742C25.4253 40.2289 25.124 39.4902 25.252 38.7409L25.9933 34.4129L22.8493 31.3516C22.3053 30.8236 22.116 30.0476 22.3506 29.3249C22.588 28.6049 23.2013 28.0929 23.9506 27.9862L28.2866 27.3542L30.2306 23.4156C30.5693 22.7382 31.2466 22.3169 31.9986 22.3169H32.004C32.7586 22.3196 33.436 22.7409 33.7693 23.4182L35.7133 27.3542L40.0573 27.9889C40.7986 28.0929 41.412 28.6049 41.6466 29.3249C41.884 30.0476 41.6946 30.8236 41.148 31.3516Z" fill="black"/>
</svg>
