<svg width="64" height="65" viewBox="0 0 64 65" fill="none" xmlns="http://www.w3.org/2000/svg">
<path d="M44.0367 8.44861C53.2266 8.44861 58.6571 13.7249 58.6571 22.6829V22.7823H47.3647C42.1096 22.7915 37.8524 26.9423 37.8429 32.0661C37.8358 37.2015 42.0977 41.3708 47.3647 41.3777H58.6666V42.1935C58.6666 51.1515 53.2361 56.4486 44.0461 56.4486H19.9561C10.7638 56.4486 5.33325 51.1515 5.33325 42.1935V22.6829C5.33325 13.7249 10.7638 8.44861 19.9561 8.44861H44.0367ZM33.0215 18.7817H17.9721C16.8533 18.7863 15.9454 19.6715 15.9406 20.7647C15.9359 21.8624 16.8461 22.7569 17.9721 22.7615H33.0405C34.1664 22.7569 35.0767 21.8624 35.0719 20.7623C35.0672 19.6646 34.1475 18.7771 33.0215 18.7817Z" fill="black"/>
<path opacity="0.4" d="M42.7663 33.2397C43.3239 35.7762 45.5478 37.5608 48.0867 37.5144H56.7532C57.8096 37.5144 58.6665 36.6395 58.6665 35.5581V28.8073C58.6642 27.7282 57.8096 26.851 56.7532 26.8486H47.8827C44.9947 26.8579 42.662 29.2552 42.6665 32.2094C42.6665 32.5552 42.7005 32.9009 42.7663 33.2397Z" fill="black"/>
<path d="M47.9999 34.8486C49.4727 34.8486 50.6666 33.6547 50.6666 32.1819C50.6666 30.7092 49.4727 29.5153 47.9999 29.5153C46.5272 29.5153 45.3333 30.7092 45.3333 32.1819C45.3333 33.6547 46.5272 34.8486 47.9999 34.8486Z" fill="black"/>
</svg>
