<svg width="226" height="56" viewBox="0 0 226 56" fill="none" xmlns="http://www.w3.org/2000/svg">
<path d="M15.0008 41.3982C12.638 41.3982 10.4876 40.854 8.54962 39.7655C6.63816 38.6505 5.11164 37.0974 3.97007 35.1063C2.8285 33.1152 2.25771 30.7657 2.25771 28.0578C2.25771 25.3499 2.8285 23.0004 3.97007 21.0092C5.11164 18.9916 6.63816 17.4385 8.54962 16.35C10.4876 15.2616 12.638 14.7173 15.0008 14.7173C17.3636 14.7173 19.5007 15.2616 21.4122 16.35C23.3502 17.4385 24.89 18.9916 26.0316 21.0092C27.1731 23.0004 27.7439 25.3499 27.7439 28.0578C27.7439 30.7657 27.1731 33.1152 26.0316 35.1063C24.89 37.0974 23.3502 38.6505 21.4122 39.7655C19.5007 40.854 17.3636 41.3982 15.0008 41.3982ZM15.0008 38.4116C16.8061 38.4116 18.4255 38.0266 19.8591 37.2567C21.2927 36.4603 22.4343 35.2921 23.2838 33.7524C24.1334 32.2126 24.5582 30.3144 24.5582 28.0578C24.5582 25.8012 24.1334 23.9163 23.2838 22.403C22.4343 20.8632 21.2927 19.6951 19.8591 18.8987C18.4255 18.1022 16.8061 17.704 15.0008 17.704C13.2221 17.704 11.6027 18.1022 10.1425 18.8987C8.70891 19.6951 7.56734 20.8632 6.7178 22.403C5.86826 23.9163 5.44349 25.8012 5.44349 28.0578C5.44349 30.3144 5.86826 32.2126 6.7178 33.7524C7.56734 35.2921 8.70891 36.4603 10.1425 37.2567C11.6027 38.0266 13.2221 38.4116 15.0008 38.4116ZM52.9209 37.2169L52.0448 37.4956V15.1156H55.2306V41H52.0448L35.2398 18.9385L36.1159 18.6597V41H32.9302V15.1156H36.1159L52.9209 37.2169ZM64.777 29.6108V38.0133H79.9493V41H61.5913V15.1156H79.9095V18.1022H64.777V26.6242H77.1618V29.6108H64.777Z" fill="white"/>
<rect width="139.978" height="56" transform="translate(85.7554)" fill="white"/>
<path d="M91.3105 41V15.235H106.164C109.615 15.235 112.23 15.8191 114.009 16.9872C115.814 18.1288 116.717 19.8411 116.717 22.1243C116.717 23.5844 116.359 24.7393 115.642 25.5888C114.925 26.4118 113.903 27.0224 112.576 27.4206C111.275 27.8188 109.735 28.0711 107.956 28.1772L108.115 27.8985C109.416 27.925 110.638 28.018 111.779 28.1772C112.947 28.3365 113.969 28.6286 114.845 29.0533C115.721 29.4781 116.412 30.0754 116.916 30.8453C117.421 31.5887 117.673 32.571 117.673 33.7922C117.673 35.3851 117.248 36.7125 116.398 37.7744C115.549 38.8098 114.368 39.5929 112.854 40.1239C111.341 40.6549 109.589 40.9469 107.598 41H91.3105ZM96.6068 36.6196H107.04C108.713 36.6196 110 36.3541 110.903 35.8231C111.806 35.2656 112.257 34.3895 112.257 33.1948C112.257 32.3188 111.991 31.6816 111.46 31.2834C110.93 30.8852 110.226 30.6462 109.35 30.5666C108.474 30.4604 107.531 30.4073 106.523 30.4073H96.6068V36.6196ZM96.6068 26.1463H105.965C107.638 26.1463 108.925 25.9074 109.828 25.4295C110.73 24.9251 111.182 24.0756 111.182 22.8809C111.182 21.6862 110.73 20.85 109.828 20.3721C108.925 19.8677 107.73 19.6155 106.244 19.6155H96.6068V26.1463ZM126.171 35.3851V30.9648H143.215V35.3851H126.171ZM119.76 41L131.866 15.235H137.6L149.826 41H144.052L133.459 17.7836H136.007L125.494 41H119.76ZM179.695 35.7435L178.022 36.4204V15.235H183.319V41H178.022L157.195 20.6508L158.868 19.9739V41H153.572V15.235H158.868L179.695 35.7435ZM202.209 39.2876H207.386V48.9644H202.209V39.2876ZM204.798 41.5177C201.373 41.5177 198.439 40.9867 195.997 39.9248C193.581 38.8363 191.723 37.2965 190.422 35.3054C189.147 33.3143 188.51 30.925 188.51 28.1374C188.51 25.3233 189.147 22.9207 190.422 20.9296C191.723 18.9385 193.581 17.412 195.997 16.35C198.439 15.2616 201.373 14.7173 204.798 14.7173C208.249 14.7173 211.182 15.2616 213.598 16.35C216.014 17.412 217.859 18.9385 219.134 20.9296C220.434 22.9207 221.085 25.3233 221.085 28.1374C221.085 30.925 220.434 33.3143 219.134 35.3054C217.859 37.2965 216.014 38.8363 213.598 39.9248C211.182 40.9867 208.249 41.5177 204.798 41.5177ZM204.798 36.9381C206.921 36.9381 208.78 36.6196 210.373 35.9824C211.992 35.3452 213.253 34.3762 214.156 33.0754C215.085 31.7745 215.55 30.1285 215.55 28.1374C215.55 26.1463 215.085 24.5003 214.156 23.1995C213.253 21.8986 211.992 20.9296 210.373 20.2924C208.78 19.6287 206.921 19.2969 204.798 19.2969C202.7 19.2969 200.829 19.6287 199.183 20.2924C197.537 20.9296 196.249 21.8986 195.32 23.1995C194.391 24.5003 193.926 26.1463 193.926 28.1374C193.926 30.1285 194.391 31.7745 195.32 33.0754C196.249 34.3762 197.537 35.3452 199.183 35.9824C200.829 36.6196 202.7 36.9381 204.798 36.9381Z" fill="#0A0A0A"/>
</svg>
